<?xml version="1.0" encoding="utf-8"?>
<!-- Generator: Adobe Illustrator 17.1.0, SVG Export Plug-In . SVG Version: 6.00 Build 0)  -->
<!DOCTYPE svg PUBLIC "-//W3C//DTD SVG 1.1//EN" "http://www.w3.org/Graphics/SVG/1.1/DTD/svg11.dtd">
<svg version="1.1" id="Layer_1" xmlns="http://www.w3.org/2000/svg" xmlns:xlink="http://www.w3.org/1999/xlink" x="0px" y="0px"
	 viewBox="0 0 184.396 86.742" enable-background="new 0 0 184.396 86.742" xml:space="preserve">
<g>
	<path fill="#404041" d="M120.973,32.313c-1.039-0.889-1.712-2.193-1.712-3.664c0-2.67,2.172-4.843,4.843-4.843
		c2.67,0,4.843,2.172,4.843,4.843c0,1.396-0.602,2.646-1.55,3.53c0.588,0.067,1.177,0.141,1.747,0.219
		c0.782-1.049,1.251-2.344,1.251-3.749c0-3.468-2.822-6.291-6.291-6.291s-6.291,2.822-6.291,6.291c0,1.511,0.536,2.899,1.428,3.984
		C119.835,32.516,120.418,32.407,120.973,32.313z"/>
	<g>
		<path fill="none" stroke="#404041" stroke-width="1.4477" stroke-linecap="round" stroke-linejoin="round" d="M84.142,16.382
			c0.259,0,1.879,2.581,2.521,3.871h8.622c0.641-1.29,2.262-3.871,2.521-3.871c0.442,0,0.789-0.243,0.773-0.542
			c-0.015-0.299-0.383-0.542-0.822-0.542c-0.355,0-2.342-1.015-3.31-1.703c-2.777,0-4.166,0-6.944,0
			c-0.968,0.688-3.309,1.703-3.309,1.703c-0.439,0-0.807,0.243-0.823,0.542C83.353,16.139,83.699,16.382,84.142,16.382z
			 M94.051,13.266c-0.004-0.228-2.222-6.607-2.239-9.445c-0.001-0.25-0.494-1.928-0.497-2.839c0-0.143-0.153-0.258-0.342-0.258
			c-0.189,0-0.343,0.116-0.343,0.258c-0.002,0.911-0.494,2.589-0.496,2.839c-0.018,2.839-2.224,9.217-2.228,9.445 M86.546,20.871
			c-0.006,0.288,0.687,10.87,0.664,15.502c-0.084,5.35-0.452,10.532-0.965,15.864c-0.754,7.2-1.23,14.302-2.287,21.476
			c-0.154,1.04-0.288,1.895-0.401,2.592l-4.297,1.449 M102.519,75.231l-4.297-1.825c-0.155-0.028-0.247-0.103-0.401-1.143
			c-1.064-7.173-1.472-13.128-2.227-20.329c-0.513-5.332-0.763-9.79-0.844-15.14c-0.023-4.632,0.489-15.576,0.483-15.864"/>
	</g>
	<g>
		<path fill="#404041" d="M183.672,83.285c-0.185,0-0.37-0.07-0.512-0.212l-20.364-20.364L141.236,81.08
			c-0.304,0.259-0.762,0.224-1.02-0.081c-0.26-0.304-0.224-0.762,0.081-1.02l22.069-18.805c0.288-0.245,0.714-0.229,0.982,0.039
			l20.836,20.836c0.283,0.283,0.283,0.741,0,1.024C184.042,83.215,183.857,83.285,183.672,83.285z"/>
	</g>
	<g>
		<path fill="#404041" d="M79.191,83.319c-0.385,0-0.697-0.313-0.697-0.698V35.723h-0.53c-0.385,0-0.697-0.313-0.697-0.698v-2.979
			l-10.575,3.477v4.344c0,0.385-0.312,0.698-0.697,0.698h-0.61v25.709c0,0.385-0.312,0.698-0.697,0.698h-4.195
			c-0.385,0-0.697-0.313-0.697-0.698c0-0.385,0.312-0.698,0.697-0.698h3.498V39.868c0-0.385,0.312-0.698,0.697-0.698h0.61v-4.151
			c0-0.301,0.193-0.569,0.479-0.663l11.97-3.936c0.214-0.067,0.446-0.033,0.627,0.098c0.181,0.132,0.288,0.342,0.288,0.565v3.245
			h0.53c0.385,0,0.697,0.313,0.697,0.698v47.596C79.888,83.006,79.576,83.319,79.191,83.319z"/>
	</g>
	<g>
		<g>
			<path fill="#404041" d="M54.595,79.692c-0.399,0-0.724-0.325-0.724-0.724V61.45l-4.958,2.382v10.995
				c0,0.227-0.107,0.441-0.289,0.579c-0.182,0.135-0.419,0.18-0.636,0.117l-5.034-1.448c-0.31-0.09-0.524-0.373-0.524-0.696v-3.98
				l-8.816-3.507v9.168c0,0.399-0.325,0.724-0.724,0.724s-0.724-0.325-0.724-0.724V64.825c0-0.239,0.119-0.464,0.318-0.599
				c0.198-0.135,0.451-0.162,0.674-0.074l10.264,4.082c0.276,0.11,0.457,0.377,0.457,0.673v3.927l3.586,1.032V63.377
				c0-0.278,0.16-0.532,0.411-0.653l6.406-3.078c0.225-0.108,0.488-0.092,0.699,0.04c0.211,0.133,0.339,0.364,0.339,0.613v18.669
				C55.319,79.368,54.994,79.692,54.595,79.692z"/>
		</g>
	</g>
	<g>
		<path fill="#404041" d="M102.519,75.586c-0.399,0-0.724-0.325-0.724-0.724V41.744c0-0.251,0.131-0.483,0.344-0.615
			c0.212-0.134,0.478-0.145,0.704-0.033c2.639,1.318,16.267,7.89,25.393,7.89c8.347,0,13.419-0.8,19.856-2.279
			c0.216-0.044,0.44,0.002,0.613,0.14c0.173,0.137,0.274,0.346,0.274,0.566v21.993c0,0.399-0.325,0.724-0.724,0.724
			c-0.399,0-0.724-0.325-0.724-0.724V48.32c-6.132,1.373-11.196,2.114-19.294,2.114c-8.495,0-20.249-5.233-24.992-7.528v31.956
			C103.243,75.262,102.918,75.586,102.519,75.586z"/>
	</g>
	<g>
		<path fill="#404041" d="M128.235,56.356c-6.496,0-13.834-1.95-21.222-5.637c-0.357-0.179-0.503-0.614-0.325-0.971
			c0.178-0.359,0.611-0.5,0.971-0.325c7.188,3.589,14.303,5.485,20.575,5.485c8.347,0,13.419-0.8,19.856-2.279
			c0.382-0.091,0.779,0.153,0.868,0.544c0.089,0.39-0.154,0.779-0.544,0.868C141.874,55.542,136.721,56.356,128.235,56.356z"/>
	</g>
	<g>
		<path fill="#404041" d="M128.235,61.808c-6.496,0-13.834-1.95-21.222-5.637c-0.357-0.179-0.503-0.614-0.325-0.971
			c0.178-0.359,0.611-0.5,0.971-0.325c7.188,3.589,14.303,5.485,20.575,5.485c8.347,0,13.419-0.8,19.856-2.279
			c0.382-0.089,0.779,0.153,0.868,0.544c0.089,0.39-0.154,0.779-0.544,0.868C141.874,60.994,136.721,61.808,128.235,61.808z"/>
	</g>
	<g>
		<path fill="#404041" d="M107.175,79.538c-0.399,0-0.724-0.325-0.724-0.724V44.101c0-0.399,0.325-0.724,0.724-0.724
			c0.399,0,0.724,0.325,0.724,0.724v34.713C107.899,79.213,107.575,79.538,107.175,79.538z"/>
	</g>
	<g>
		<g>
			<path fill="#404041" d="M140.668,81.17c-0.022,0-0.042-0.001-0.064-0.002c-0.38-0.035-0.66-0.371-0.626-0.751
				c0.005-0.054,0.468-5.454-1.585-8.254c-0.226-0.308-0.16-0.74,0.149-0.966c0.303-0.227,0.739-0.161,0.966,0.149
				c2.365,3.223,1.87,8.954,1.849,9.197C141.323,80.901,141.021,81.17,140.668,81.17z"/>
		</g>
		<g>
			<path fill="#404041" d="M136.1,75.752c-0.042,0-0.085-0.005-0.128-0.012c-0.376-0.07-0.623-0.431-0.553-0.807
				c0.749-4.01,3.626-3.533,3.654-3.527c0.377,0.068,0.625,0.428,0.556,0.803c-0.067,0.375-0.43,0.623-0.794,0.558
				c-0.168-0.026-1.576-0.149-2.056,2.42C136.716,75.519,136.426,75.751,136.1,75.752z"/>
		</g>
		<g>
			<path fill="#404041" d="M133.672,74.472c-0.154,0-0.31-0.051-0.439-0.157c-0.295-0.243-0.338-0.679-0.095-0.974
				c2.601-3.166,5.392-2.349,5.509-2.314c0.364,0.112,0.57,0.499,0.456,0.865c-0.111,0.362-0.493,0.565-0.859,0.458
				c-0.1-0.03-2.061-0.537-4.037,1.869C134.07,74.386,133.872,74.472,133.672,74.472z"/>
		</g>
		<g>
			<path fill="#404041" d="M139.278,72.379c-0.202,0-0.403-0.087-0.539-0.258c-0.239-0.298-0.192-0.733,0.106-0.973
				c0.067-0.054,1.661-1.311,4.131-0.769c0.372,0.082,0.608,0.451,0.527,0.824c-0.082,0.372-0.456,0.611-0.824,0.527
				c-1.795-0.392-2.955,0.489-2.967,0.497C139.583,72.329,139.43,72.379,139.278,72.379z"/>
		</g>
		<g>
			<path fill="#404041" d="M138.95,72.125c-0.079,0-0.16-0.014-0.238-0.043c-0.356-0.132-0.541-0.524-0.412-0.882
				c0.034-0.095,0.875-2.35,3.318-2.641c0.368-0.05,0.723,0.226,0.768,0.605s-0.226,0.723-0.605,0.768
				c-1.583,0.188-2.159,1.678-2.182,1.741C139.494,71.951,139.23,72.125,138.95,72.125z"/>
		</g>
	</g>
	<g>
		<g>
			<path fill="#404041" d="M129.478,81.782c-0.018,0-0.037-0.001-0.056-0.002c-0.39-0.03-0.682-0.371-0.653-0.762
				c0.006-0.072,0.521-7.186-1.775-10.902c-0.205-0.333-0.102-0.769,0.232-0.976c0.333-0.207,0.769-0.103,0.976,0.232
				c2.539,4.109,2.005,11.445,1.982,11.755C130.155,81.499,129.844,81.782,129.478,81.782z"/>
		</g>
		<g>
			<path fill="#404041" d="M124.481,74.745c-0.037,0-0.074-0.003-0.111-0.009c-0.387-0.06-0.651-0.423-0.59-0.81
				c0.305-1.938,0.978-3.276,2.001-3.977c0.966-0.662,1.869-0.491,1.968-0.469c0.384,0.083,0.626,0.461,0.544,0.843
				c-0.083,0.379-0.452,0.621-0.831,0.546c-0.034-0.005-0.449-0.06-0.911,0.272s-1.074,1.122-1.37,3.004
				C125.126,74.496,124.824,74.745,124.481,74.745z"/>
		</g>
		<g>
			<path fill="#404041" d="M121.825,73.085c-0.138,0-0.279-0.041-0.403-0.126c-0.321-0.222-0.402-0.665-0.179-0.986
				c2.834-4.096,5.916-3.023,6.044-2.979c0.368,0.135,0.557,0.542,0.422,0.91c-0.134,0.364-0.536,0.552-0.903,0.424
				c-0.107-0.035-2.227-0.685-4.397,2.451C122.272,72.978,122.051,73.085,121.825,73.085z"/>
		</g>
		<g>
			<path fill="#404041" d="M127.959,70.366c-0.188,0-0.377-0.074-0.516-0.222c-0.267-0.284-0.256-0.727,0.026-0.996
				c0.074-0.069,1.836-1.703,4.549-0.996c0.379,0.099,0.607,0.486,0.508,0.865c-0.099,0.38-0.489,0.605-0.865,0.508
				c-1.942-0.506-3.165,0.605-3.217,0.653C128.307,70.303,128.133,70.366,127.959,70.366z"/>
		</g>
		<g>
			<path fill="#404041" d="M127.598,70.04c-0.068,0-0.137-0.01-0.207-0.031c-0.375-0.115-0.586-0.511-0.472-0.885
				c0.037-0.121,0.932-2.962,3.589-3.338c0.382-0.052,0.747,0.214,0.801,0.604c0.054,0.387-0.216,0.746-0.604,0.801
				c-1.77,0.25-2.423,2.325-2.429,2.346C128.184,69.844,127.903,70.04,127.598,70.04z"/>
		</g>
	</g>
	<g>
		<path fill="#404041" d="M99.341,37.115c-1.374,0-2.685-0.127-3.906-0.424c-0.388-0.095-0.626-0.487-0.532-0.875
			c0.094-0.39,0.49-0.623,0.875-0.532c4.555,1.11,10.702-0.394,16.649-1.848c3.848-0.94,7.827-1.913,11.343-2.162
			c8.975-0.639,17.411,4.044,17.767,4.242c0.348,0.196,0.471,0.638,0.276,0.986c-0.196,0.347-0.638,0.469-0.986,0.276
			c-0.082-0.048-8.411-4.672-16.954-4.061c-3.393,0.241-7.312,1.198-11.101,2.126C108.181,35.964,103.473,37.115,99.341,37.115z"/>
	</g>
	<g>
		<path fill="#404041" d="M135.139,29.86h-3.271c-0.399,0-0.724-0.325-0.724-0.724s0.325-0.724,0.724-0.724h3.271
			c0.399,0,0.724,0.325,0.724,0.724S135.538,29.86,135.139,29.86z"/>
	</g>
	<g>
		<path fill="#404041" d="M129.359,24.074c-0.195,0-0.39-0.079-0.533-0.234c-0.27-0.295-0.251-0.752,0.043-1.024l2.328-2.139
			c0.296-0.27,0.752-0.249,1.024,0.043c0.27,0.295,0.251,0.752-0.043,1.024l-2.328,2.139
			C129.709,24.01,129.533,24.074,129.359,24.074z"/>
	</g>
	<g>
		<path fill="#404041" d="M116.298,29.86h-3.271c-0.399,0-0.724-0.325-0.724-0.724s0.325-0.724,0.724-0.724h3.271
			c0.399,0,0.724,0.325,0.724,0.724S116.698,29.86,116.298,29.86z"/>
	</g>
	<g>
		<path fill="#404041" d="M118.852,23.806c-0.175,0-0.351-0.064-0.489-0.191l-2.328-2.138c-0.295-0.271-0.314-0.729-0.044-1.023
			c0.271-0.294,0.731-0.313,1.023-0.044l2.328,2.138c0.295,0.271,0.314,0.729,0.044,1.023
			C119.242,23.727,119.047,23.806,118.852,23.806z"/>
	</g>
	<g>
		<path fill="#404041" d="M124.103,21.668c-0.399,0-0.724-0.325-0.724-0.724v-3.46c0-0.399,0.325-0.724,0.724-0.724
			c0.399,0,0.724,0.325,0.724,0.724v3.46C124.827,21.343,124.503,21.668,124.103,21.668z"/>
	</g>
	<g>
		<path fill="#404041" d="M94.387,42.461h-2.412c-0.399,0-0.724-0.325-0.724-0.724s0.325-0.724,0.724-0.724h2.412
			c0.399,0,0.724,0.325,0.724,0.724S94.787,42.461,94.387,42.461z"/>
	</g>
	<g>
		<path fill="#404041" d="M94.931,50.665h-3.499c-0.399,0-0.724-0.325-0.724-0.724s0.325-0.724,0.724-0.724h3.499
			c0.399,0,0.724,0.325,0.724,0.724S95.33,50.665,94.931,50.665z"/>
	</g>
	<g>
		<path fill="#404041" d="M95.956,59.944h-5.926c-0.4,0-0.724-0.325-0.724-0.724s0.324-0.724,0.724-0.724h5.926
			c0.399,0,0.724,0.325,0.724,0.724S96.355,59.944,95.956,59.944z"/>
	</g>
	<g>
		<path fill="#404041" d="M96.318,67.901h-7.238c-0.399,0-0.724-0.325-0.724-0.724s0.325-0.724,0.724-0.724h7.238
			c0.399,0,0.724,0.325,0.724,0.724S96.717,67.901,96.318,67.901z"/>
	</g>
	<g>
		<path fill="#404041" d="M15.497,83.441c-0.313,0-0.601-0.204-0.694-0.52c-0.113-0.384,0.107-0.785,0.49-0.899
			c0.47-0.138,11.608-3.388,20.232-3.388c9.605,0,14.196,2.356,14.388,2.456c0.353,0.186,0.489,0.623,0.304,0.976
			c-0.184,0.354-0.621,0.491-0.976,0.306c-0.044-0.023-4.511-2.29-13.715-2.29c-8.417,0-19.711,3.296-19.824,3.329
			C15.634,83.432,15.566,83.441,15.497,83.441z"/>
	</g>
	<g>
		<path fill="#404041" d="M170.563,82.323c-0.285,0-0.554-0.169-0.67-0.448l-7.963-19.351c-0.152-0.37,0.025-0.793,0.394-0.945
			c0.372-0.151,0.792,0.024,0.945,0.394l7.963,19.351c0.152,0.37-0.025,0.793-0.394,0.945
			C170.748,82.305,170.655,82.323,170.563,82.323z"/>
	</g>
	<g>
		<g>
			<path fill="#404041" d="M12.725,53.088c-0.399,0-0.724-0.325-0.724-0.724v-9.166c0-0.399,0.325-0.724,0.724-0.724
				c0.399,0,0.724,0.325,0.724,0.724v9.166C13.449,52.764,13.124,53.088,12.725,53.088z"/>
		</g>
		<g>
			<path fill="#404041" d="M17.308,48.506H8.141c-0.399,0-0.724-0.325-0.724-0.724s0.325-0.724,0.724-0.724h9.167
				c0.399,0,0.724,0.325,0.724,0.724S17.708,48.506,17.308,48.506z"/>
		</g>
		<g>
			<g>
				<path fill="#404041" d="M14.941,50.722c-0.185,0-0.371-0.07-0.512-0.212l-4.433-4.433c-0.283-0.283-0.283-0.741,0-1.024
					c0.283-0.284,0.741-0.284,1.024,0l4.433,4.433c0.283,0.283,0.283,0.741,0,1.024C15.312,50.652,15.126,50.722,14.941,50.722z"/>
			</g>
			<g>
				<path fill="#404041" d="M10.508,50.722c-0.186,0-0.371-0.07-0.512-0.212c-0.283-0.283-0.283-0.741,0-1.024l4.433-4.433
					c0.283-0.284,0.741-0.284,1.024,0c0.283,0.283,0.283,0.741,0,1.024L11.02,50.51C10.878,50.652,10.693,50.722,10.508,50.722z"/>
			</g>
		</g>
	</g>
	<g>
		<g>
			<polygon fill="#FFFFFF" points="12.948,57.021 0.612,63.085 12.948,69.268 25.019,63.085 			"/>
			<path fill="#404041" d="M12.948,69.88c-0.094,0-0.188-0.022-0.274-0.065L0.338,63.633C0.13,63.528-0.001,63.316,0,63.083
				c0.001-0.233,0.133-0.444,0.342-0.547l12.336-6.065c0.171-0.083,0.373-0.084,0.545,0.002l12.071,6.065
				c0.206,0.104,0.336,0.314,0.337,0.545c0.001,0.23-0.128,0.441-0.333,0.547l-12.071,6.183
				C13.139,69.857,13.044,69.88,12.948,69.88z M1.987,63.091l10.958,5.492l10.722-5.492l-10.722-5.387L1.987,63.091z"/>
		</g>
		<g>
			<circle fill="#FFFFFF" cx="4.881" cy="59.296" r="1.281"/>
			<path fill="#404041" d="M4.881,61.188c-1.044,0-1.892-0.849-1.892-1.892c0-1.044,0.849-1.893,1.892-1.893
				s1.892,0.849,1.892,1.893C6.773,60.339,5.924,61.188,4.881,61.188z M4.881,58.627c-0.369,0-0.669,0.301-0.669,0.67
				c0,0.369,0.3,0.668,0.669,0.668c0.369,0,0.669-0.3,0.669-0.668C5.55,58.927,5.249,58.627,4.881,58.627z"/>
		</g>
		<g>
			<circle fill="#FFFFFF" cx="7.442" cy="59.296" r="1.281"/>
			<path fill="#404041" d="M7.442,61.188c-1.044,0-1.892-0.849-1.892-1.892c0-1.044,0.849-1.893,1.892-1.893
				s1.892,0.849,1.892,1.893C9.334,60.339,8.486,61.188,7.442,61.188z M7.442,58.627c-0.369,0-0.669,0.301-0.669,0.67
				c0,0.369,0.3,0.668,0.669,0.668s0.669-0.3,0.669-0.668C8.111,58.927,7.811,58.627,7.442,58.627z"/>
		</g>
		<g>
			<circle fill="#FFFFFF" cx="10.004" cy="59.296" r="1.281"/>
			<path fill="#404041" d="M10.003,61.188c-1.044,0-1.892-0.849-1.892-1.892c0-1.044,0.849-1.893,1.892-1.893
				s1.892,0.849,1.892,1.893C11.896,60.339,11.047,61.188,10.003,61.188z M10.003,58.627c-0.369,0-0.669,0.301-0.669,0.67
				c0,0.369,0.3,0.668,0.669,0.668s0.669-0.3,0.669-0.668C10.672,58.927,10.372,58.627,10.003,58.627z"/>
		</g>
		<g>
			<circle fill="#FFFFFF" cx="12.565" cy="59.296" r="1.281"/>
			<path fill="#404041" d="M12.565,61.188c-1.044,0-1.892-0.849-1.892-1.892c0-1.044,0.849-1.893,1.892-1.893
				s1.892,0.849,1.892,1.893C14.457,60.339,13.608,61.188,12.565,61.188z M12.565,58.627c-0.369,0-0.669,0.301-0.669,0.67
				c0,0.369,0.3,0.668,0.669,0.668s0.669-0.3,0.669-0.668C13.234,58.927,12.934,58.627,12.565,58.627z"/>
		</g>
		<g>
			<circle fill="#FFFFFF" cx="15.126" cy="59.296" r="1.281"/>
			<path fill="#404041" d="M15.126,61.188c-1.044,0-1.892-0.849-1.892-1.892c0-1.044,0.849-1.893,1.892-1.893
				s1.892,0.849,1.892,1.893C17.019,60.339,16.17,61.188,15.126,61.188z M15.126,58.627c-0.369,0-0.669,0.301-0.669,0.67
				c0,0.369,0.3,0.668,0.669,0.668s0.669-0.3,0.669-0.668C15.795,58.927,15.495,58.627,15.126,58.627z"/>
		</g>
		<g>
			<circle fill="#FFFFFF" cx="17.688" cy="59.296" r="1.281"/>
			<path fill="#404041" d="M17.688,61.188c-1.044,0-1.892-0.849-1.892-1.892c0-1.044,0.849-1.893,1.892-1.893
				c1.044,0,1.892,0.849,1.892,1.893C19.58,60.339,18.731,61.188,17.688,61.188z M17.688,58.627c-0.369,0-0.669,0.301-0.669,0.67
				c0,0.369,0.3,0.668,0.669,0.668c0.369,0,0.669-0.3,0.669-0.668C18.357,58.927,18.057,58.627,17.688,58.627z"/>
		</g>
		<g>
			<circle fill="#FFFFFF" cx="20.249" cy="59.296" r="1.281"/>
			<path fill="#404041" d="M20.249,61.188c-1.044,0-1.892-0.849-1.892-1.892c0-1.044,0.849-1.893,1.892-1.893
				s1.892,0.849,1.892,1.893C22.142,60.339,21.293,61.188,20.249,61.188z M20.249,58.627c-0.369,0-0.669,0.301-0.669,0.67
				c0,0.369,0.3,0.668,0.669,0.668s0.669-0.3,0.669-0.668C20.918,58.927,20.618,58.627,20.249,58.627z"/>
		</g>
	</g>
	<g>
		<path fill="#404041" d="M59.936,74.913c-0.399,0-0.724-0.325-0.724-0.724v-11.29l-4.883-1.927
			c-0.372-0.146-0.554-0.566-0.408-0.939c0.147-0.372,0.568-0.557,0.939-0.407l5.341,2.107c0.276,0.109,0.458,0.376,0.458,0.673
			v11.782C60.66,74.589,60.336,74.913,59.936,74.913z"/>
	</g>
	<g>
		<path fill="#404041" d="M25.81,80.98c-0.399,0-0.724-0.325-0.724-0.724V66.629c0-0.331,0.225-0.62,0.545-0.701l7.081-1.803
			c0.39-0.102,0.782,0.135,0.88,0.523c0.099,0.387-0.135,0.781-0.523,0.88l-6.535,1.665v13.065
			C26.534,80.656,26.21,80.98,25.81,80.98z"/>
	</g>
	<g>
		<path fill="#404041" d="M69.841,33.668c-0.399,0-0.724-0.325-0.724-0.724v-3.722c0-0.399,0.325-0.724,0.724-0.724
			c0.399,0,0.724,0.325,0.724,0.724v3.722C70.565,33.344,70.24,33.668,69.841,33.668z"/>
	</g>
	<g>
		<path fill="#404041" d="M73.442,33.255c-0.399,0-0.724-0.325-0.724-0.724v-6.139c0-0.399,0.325-0.724,0.724-0.724
			c0.399,0,0.724,0.325,0.724,0.724v6.139C74.166,32.931,73.841,33.255,73.442,33.255z"/>
	</g>
	<g>
		<path fill="#404041" d="M73.442,80.062c-0.385,0-0.696-0.312-0.696-0.697V40.412c0-0.18,0.069-0.353,0.194-0.482l2.776-2.889
			c0.268-0.278,0.708-0.285,0.985-0.02c0.277,0.267,0.287,0.708,0.02,0.985l-2.582,2.687v38.673
			C74.138,79.75,73.827,80.062,73.442,80.062z"/>
	</g>
	<g>
		<path fill="#404041" d="M16.256,58.043v-5.679c0-0.419-0.339-0.758-0.758-0.758s-0.758,0.339-0.758,0.758v4.917L16.256,58.043z"/>
		<path fill="#404041" d="M10.549,57.573v-5.32c0-0.409-0.331-0.74-0.74-0.74c-0.409,0-0.74,0.331-0.74,0.74v6.048L10.549,57.573z"
			/>
		<path fill="#404041" d="M14.74,68.99v13.727c0,0.419,0.339,0.758,0.758,0.758s0.758-0.339,0.758-0.758V68.214L14.74,68.99z"/>
		<path fill="#404041" d="M9.069,67.951v18.052c0,0.409,0.331,0.74,0.74,0.74c0.409,0,0.74-0.331,0.74-0.74v-17.31L9.069,67.951z"/>
	</g>
</g>
</svg>
