<?xml version="1.0" encoding="utf-8"?>
<!-- Generated by IcoMoon.io -->
<!DOCTYPE svg PUBLIC "-//W3C//DTD SVG 1.1//EN" "http://www.w3.org/Graphics/SVG/1.1/DTD/svg11.dtd">
<svg version="1.1" xmlns="http://www.w3.org/2000/svg" xmlns:xlink="http://www.w3.org/1999/xlink" width="80" height="80" viewBox="0 0 80 80">
<path fill="#dadada" d="M80 17.688c-2.938 1.313-6.109 2.188-9.422 2.578 3.391-2.031 5.984-5.25 7.219-9.078-3.172 1.875-6.688 3.25-10.422 3.984-3-3.188-7.266-5.172-11.984-5.172-9.063 0-16.406 7.344-16.406 16.406 0 1.281 0.141 2.531 0.422 3.734-13.641-0.688-25.734-7.219-33.828-17.156-1.406 2.422-2.219 5.25-2.219 8.25 0 5.688 2.891 10.719 7.297 13.656-2.688-0.078-5.219-0.828-7.438-2.047 0 0.063 0 0.141 0 0.203 0 7.953 5.656 14.594 13.172 16.094-1.375 0.375-2.828 0.578-4.328 0.578-1.063 0-2.078-0.109-3.094-0.297 2.094 6.516 8.156 11.266 15.328 11.406-5.625 4.406-12.688 7.031-20.391 7.031-1.328 0-2.625-0.078-3.922-0.234 7.281 4.672 15.906 7.375 25.172 7.375 30.187 0 46.703-25.016 46.703-46.703 0-0.719-0.016-1.422-0.047-2.125 3.203-2.297 5.984-5.188 8.187-8.484z"></path>
</svg>
